<svg xmlns="http://www.w3.org/2000/svg" viewBox="0 0 612 792"><defs><style>.cls-1{fill:#8f2d56;}.cls-2{fill:#6d2241;}.cls-3{fill:#fb9623;}.cls-4{fill:#fba745;}.cls-5{fill:#fdcf9b;}.cls-6{fill:#1d1d1b;}.cls-10,.cls-11,.cls-12,.cls-7,.cls-8,.cls-9{fill:none;stroke:#1d1d1b;stroke-linecap:round;stroke-miterlimit:10;}.cls-7{stroke-width:0.28px;}.cls-8{stroke-width:0.71px;}.cls-9{stroke-width:0.33px;}.cls-10{stroke-width:0.84px;}.cls-11{stroke-width:0.35px;}.cls-12{stroke-width:0.89px;}</style></defs><g id="canguros"><rect class="cls-1" width="612" height="792.43"/><ellipse class="cls-2" cx="280.23" cy="315.94" rx="104.37" ry="19.42"/><path class="cls-3" d="M202.13,213.19a15.11,15.11,0,0,1-5.63-2.62c-2.42-1.68-3.36-4.55-3.8-7.95a17.6,17.6,0,0,0-2.37-6.38s5.58,2.42,8.19,6.77A34,34,0,0,1,202.13,213.19Z"/><path class="cls-4" d="M202.22,213s-.26-6.54,3.31-9.82,9.3-5.23,9.65-5.49c0,0-1.53,7.81-4.41,11a18.8,18.8,0,0,1-7.59,5C202.61,213.8,202.22,213,202.22,213Z"/><path class="cls-4" d="M202.22,212.64s-2.75-.7-7.9,2-13.74,7.46-14.62,8.11-3.44,2.62-2,5,4.93,3.57,7.86,3.75a43,43,0,0,0,9.51-1.14c.6-.17,1.69-.63,2.57-.89,0,0,1.33-.41,1.61,0l4.93,23.2L207,267.38l7.38,1.55c-.72-1.2-8.09-2.24-9.85,4s2.16,11.52,2.16,11.52-2.64-3.28-8.48-3.12a7.44,7.44,0,0,0-7,5.69h57.64c6.49-.89,7.93-2.33,10.49-4.41s6-7.92,5.92-14.17-3.07-10.65-8.08-12.81c-2.12-.91-6.78-1.67-8.95-2a.17.17,0,0,0-.09.32,37.52,37.52,0,0,1,4.39,2c2.8,1.76,5.67,4.26,6.65,6.17,1.72,3.35.8,7.2-.64,10.41s-5.12,5.7-7.05,5.84c-2.64.19-5-2-6.16-3.68s-4-8.81-6.33-12.17a19.55,19.55,0,0,0-9-7,22.18,22.18,0,0,0-4.25-1,11.32,11.32,0,0,1-8.77-6.29c-1.52-3.2-2.75-7.52-4.83-13.23-3.41-9.3-7.17-18.67-8.11-21a2.42,2.42,0,0,0-1-1.21A1.63,1.63,0,0,0,202.22,212.64Z"/><path class="cls-5" d="M195.76,282.47c-3.74-1.41-7.5-7.49-9.24-11.49a58.75,58.75,0,0,1-2.61-8.82,25.18,25.18,0,0,0,6.83.21,11.76,11.76,0,0,0,7.09-3.26c2.68-2.65,3-5.63,3.22-11.34.23-6.26-1.34-14.69-1.91-17.5-.12-.61-.23-1-.23-1h0a1.69,1.69,0,0,1,1.32.88,21.25,21.25,0,0,1,1.45,3.53c1.12,3.39,6.2,23.38,7.63,29.66,1.48,6.55,3.22,22.58-2.13,22.54C203.24,285.83,195.76,282.47,195.76,282.47Z"/><path class="cls-4" d="M214.33,268.93c-.72-1.2-8.09-2.24-9.85,4s2.16,11.52,2.16,11.52-2.64-3.28-8.48-3.12a7.44,7.44,0,0,0-7,5.69H215Z"/><path class="cls-4" d="M207.68,253.73l1,4.76-6.09,4-.24,5.49s3.08-.54,3-4.7l6.75-4-1.27-5.61Z"/><ellipse class="cls-6" cx="195.49" cy="219.07" rx="0.54" ry="1.09" transform="translate(-43.45 48.44) rotate(-12.72)"/><path class="cls-6" d="M177.35,226.83a1.74,1.74,0,0,0,.68.08,4.38,4.38,0,0,0,2.63-1.21c1.63-1.45.55-3.14-.53-3.26a8.08,8.08,0,0,0-2.2,2,3,3,0,0,0-.33.53,2.67,2.67,0,0,0-.3,1.86Z"/><path class="cls-7" d="M177.72,227.31s1.74,2.13,3.18,1.94,1.87-1.14,1.87-1.44"/><path class="cls-3" d="M224.57,133.47c-4.49-1.12-8.1-2.37-14.21-6.6s-8.48-11.47-9.6-20.07a44,44,0,0,0-6-16.08s14.08,6.11,20.69,17.08S224.57,133.47,224.57,133.47Z"/><path class="cls-4" d="M224.79,133s-.66-16.51,8.37-24.77,23.45-13.21,24.33-13.88c0,0-3.85,19.71-11.12,27.86s-17.73,12.33-19.16,12.55S224.79,133,224.79,133Z"/><path class="cls-4" d="M224.79,132.1s-6.94-1.76-19.93,5S170.18,155.88,168,157.54s-8.7,6.6-5.17,12.55,12.44,9,19.82,9.47,21.36-2.09,24-2.87c1.53-.44,4.26-1.58,6.49-2.26,0,0,3.37-1,4.06,0L229.62,233l7.12,37.27,18.61,3.92c-1.82-3-20.41-5.66-24.85,10.1S236,313.34,236,313.34s-6.66-8.28-21.41-7.88-17.78,14.35-17.78,14.35H342.21c16.37-2.23,20-5.86,26.47-11.12s15.15-20,14.95-35.75-7.76-26.89-20.41-32.33c-5.33-2.29-17.1-4.22-22.56-5a.43.43,0,0,0-.25.82c2.81,1.36,7.21,2.6,11.1,5,7.06,4.43,14.29,10.73,16.76,15.56,4.34,8.46,2,18.18-1.61,26.26S353.73,297.63,348.88,298c-6.68.49-12.73-5.05-15.55-9.3s-10.11-22.22-16-30.7a49.29,49.29,0,0,0-22.83-17.58A55.6,55.6,0,0,0,283.81,238a28.56,28.56,0,0,1-22.12-15.87c-3.84-8.06-6.93-19-12.2-33.38-8.59-23.48-18.08-47.11-20.45-53a6.24,6.24,0,0,0-2.58-3.06A3.87,3.87,0,0,0,224.79,132.1Z"/><path class="cls-5" d="M208.49,308.32c-9.43-3.56-18.91-18.91-23.32-29-3.59-8.25-6.58-22.25-6.58-22.25a63,63,0,0,0,17.23.54,29.69,29.69,0,0,0,17.89-8.24c6.76-6.68,7.6-14.19,8.13-28.61.59-15.79-3.37-37.07-4.81-44.16-.31-1.55-.59-2.57-.59-2.57h0a4.29,4.29,0,0,1,3.35,2.22,56.87,56.87,0,0,1,3.63,8.91c2.85,8.54,15.67,59,19.27,74.86,3.74,16.52,8.14,57-5.38,56.86C227.36,316.79,208.49,308.32,208.49,308.32Z"/><path class="cls-4" d="M255.35,274.15c-1.82-3-20.41-5.66-24.85,10.1S236,313.34,236,313.34s-6.66-8.28-21.41-7.88-17.78,14.35-17.78,14.35h60.18Z"/><path class="cls-4" d="M238.57,235.79l2.44,12-15.37,10L225,271.69s7.76-1.36,7.46-11.86l17-10.2-3.2-14.14Z"/><ellipse class="cls-6" cx="207.82" cy="148.31" rx="1.37" ry="2.74" transform="translate(-27.56 49.42) rotate(-12.72)"/><path class="cls-6" d="M162,167.91a5,5,0,0,0,1.72.2,11.22,11.22,0,0,0,6.65-3.06c4.1-3.65,1.38-7.91-1.36-8.21a20.18,20.18,0,0,0-5.53,5,8.52,8.52,0,0,0-.85,1.35,6.8,6.8,0,0,0-.75,4.68Z"/><path class="cls-8" d="M163,169.13s4.39,5.35,8,4.89,4.72-2.89,4.72-3.65"/><ellipse class="cls-2" cx="382.78" cy="514.2" rx="116.99" ry="24.76"/><path class="cls-3" d="M473.55,396.49a17.81,17.81,0,0,0,6.66-3.1c2.86-2,4-5.37,4.49-9.4a20.6,20.6,0,0,1,2.81-7.53s-6.6,2.86-9.7,8A40.23,40.23,0,0,0,473.55,396.49Z"/><path class="cls-4" d="M473.45,396.28s.31-7.74-3.92-11.61-11-6.18-11.4-6.49c0,0,1.8,9.23,5.21,13.05a22.18,22.18,0,0,0,9,5.88C473,397.21,473.45,396.28,473.45,396.28Z"/><path class="cls-4" d="M473.45,395.84s3.25-.82,9.33,2.33S499,407,500.06,407.76s4.08,3.09,2.43,5.88-5.83,4.23-9.29,4.44A50.64,50.64,0,0,1,482,416.73c-.72-.2-2-.74-3-1.05,0,0-1.58-.49-1.9,0l-5.83,27.42-3.34,17.46-8.72,1.84c.86-1.42,9.56-2.65,11.64,4.73s-2.55,13.63-2.55,13.63,3.12-3.88,10-3.69,8.33,6.72,8.33,6.72H418.44c-7.67-1-9.37-2.75-12.4-5.21s-7.1-9.37-7-16.75,3.64-12.59,9.56-15.14c2.49-1.08,8-2,10.57-2.36a.2.2,0,0,1,.11.38,44.1,44.1,0,0,0-5.19,2.36c-3.32,2.07-6.7,5-7.86,7.28-2,4-1,8.52.76,12.31s6.05,6.74,8.33,6.91c3.13.23,6-2.37,7.28-4.36s4.74-10.41,7.48-14.38a23,23,0,0,1,10.69-8.24,26.25,26.25,0,0,1,5-1.15A13.38,13.38,0,0,0,456.16,438c1.8-3.78,3.25-8.9,5.72-15.64,4-11,8.47-22.07,9.58-24.82a2.87,2.87,0,0,1,1.21-1.43A1.87,1.87,0,0,1,473.45,395.84Z"/><path class="cls-5" d="M481.08,478.4c4.42-1.67,8.86-8.86,10.93-13.6a70.27,70.27,0,0,0,3.08-10.42,29.61,29.61,0,0,1-8.07.25,13.92,13.92,0,0,1-8.38-3.86c-3.17-3.13-3.56-6.65-3.81-13.4-.28-7.4,1.58-17.37,2.25-20.69.15-.72.28-1.21.28-1.21h0a2,2,0,0,0-1.57,1,26.87,26.87,0,0,0-1.7,4.18c-1.34,4-7.34,27.63-9,35.07-1.75,7.74-3.81,26.69,2.52,26.64C472.24,482.36,481.08,478.4,481.08,478.4Z"/><path class="cls-4" d="M459.13,462.39c.86-1.42,9.56-2.65,11.64,4.73s-2.55,13.63-2.55,13.63,3.12-3.88,10-3.69,8.33,6.72,8.33,6.72H458.39Z"/><path class="cls-4" d="M467,444.42l-1.14,5.63,7.2,4.7.28,6.49s-3.63-.64-3.49-5.56l-8-4.78,1.5-6.62Z"/><ellipse class="cls-6" cx="481.4" cy="403.44" rx="1.28" ry="0.64" transform="translate(-18.17 784.15) rotate(-77.28)"/><path class="cls-6" d="M502.85,412.62a2.22,2.22,0,0,1-.81.09,5.25,5.25,0,0,1-3.11-1.43c-1.93-1.71-.65-3.71.63-3.85a9.57,9.57,0,0,1,2.59,2.35,4.15,4.15,0,0,1,.41.63,3.18,3.18,0,0,1,.34,2.19Z"/><path class="cls-9" d="M502.41,413.19s-2.06,2.51-3.77,2.29-2.21-1.35-2.21-1.71"/><path class="cls-3" d="M447,302.25c5.3-1.32,9.57-2.8,16.79-7.81s10-13.55,11.35-23.72,7.07-19,7.07-19-16.65,7.22-24.46,20.18S447,302.25,447,302.25Z"/><path class="cls-4" d="M446.77,301.73s.78-19.52-9.89-29.28-27.73-15.62-28.77-16.4c0,0,4.56,23.3,13.15,32.93s20.95,14.57,22.64,14.84S446.77,301.73,446.77,301.73Z"/><path class="cls-4" d="M446.77,300.63s8.2-2.08,23.56,5.86,41,22.26,43.6,24.21,10.28,7.81,6.12,14.84-14.71,10.67-23.43,11.19-25.25-2.47-28.38-3.38c-1.8-.53-5-1.88-7.67-2.67,0,0-4-1.23-4.8,0l-14.71,69.2-8.42,44.05-22,4.63c2.15-3.58,24.12-6.68,29.38,11.95s-6.45,34.39-6.45,34.39,7.88-9.8,25.31-9.32,21,17,21,17H308c-19.34-2.63-23.64-6.93-31.28-13.14S258.76,485.75,259,467.12s9.18-31.78,24.12-38.21c6.31-2.71,20.22-5,26.68-6a.51.51,0,0,1,.29,1c-3.32,1.61-8.52,3.08-13.11,6-8.36,5.23-16.9,12.68-19.83,18.39-5.12,10-2.38,21.49,1.91,31s15.28,17,21,17.43c7.9.59,15.05-6,18.39-11s11.94-26.27,18.87-36.3a58.19,58.19,0,0,1,27-20.78A66.35,66.35,0,0,1,377,425.76,33.73,33.73,0,0,0,403.14,407c4.54-9.53,8.2-22.44,14.43-39.46,10.15-27.76,21.37-55.69,24.17-62.62a7.36,7.36,0,0,1,3.05-3.62A4.71,4.71,0,0,1,446.77,300.63Z"/><path class="cls-5" d="M466,509c11.15-4.21,22.36-22.35,27.57-34.3,4.25-9.76,7.78-26.3,7.78-26.3A75,75,0,0,1,481,449a35.09,35.09,0,0,1-21.15-9.74c-8-7.9-9-16.78-9.62-33.82-.69-18.67,4-43.82,5.68-52.21.37-1.82.7-3,.7-3h0a5.08,5.08,0,0,0-3.95,2.62,66.67,66.67,0,0,0-4.31,10.54c-3.36,10.1-18.52,69.73-22.77,88.49-4.42,19.54-9.62,67.35,6.36,67.23C443.73,519,466,509,466,509Z"/><path class="cls-4" d="M410.64,468.55c2.15-3.58,24.12-6.68,29.38,11.95s-6.45,34.39-6.45,34.39,7.88-9.8,25.31-9.32,21,17,21,17H408.76Z"/><path class="cls-4" d="M430.47,423.21l-2.87,14.21,18.16,11.87.72,16.36s-9.17-1.62-8.81-14l-20.15-12.05,3.78-16.72Z"/><ellipse class="cls-6" cx="466.82" cy="319.8" rx="3.24" ry="1.62" transform="translate(52.06 704.72) rotate(-77.28)"/><path class="cls-6" d="M521,343a5.55,5.55,0,0,1-2,.24,13.2,13.2,0,0,1-7.85-3.62c-4.86-4.32-1.64-9.35,1.6-9.71a24.13,24.13,0,0,1,6.54,5.92,11.61,11.61,0,0,1,1,1.59,8.08,8.08,0,0,1,.87,5.53Z"/><path class="cls-10" d="M519.86,344.4s-5.2,6.33-9.51,5.79-5.58-3.42-5.58-4.32"/><ellipse class="cls-2" cx="247.22" cy="704.06" rx="129.13" ry="24.76"/><path class="cls-3" d="M150.49,577.12a18.65,18.65,0,0,1-7.07-3.28c-3-2.11-4.22-5.71-4.77-10a21.88,21.88,0,0,0-3-8s7,3,10.29,8.49S150.49,577.12,150.49,577.12Z"/><path class="cls-4" d="M150.6,576.9s-.33-8.21,4.16-12.32,11.66-6.57,12.1-6.9c0,0-1.92,9.8-5.53,13.86a23.47,23.47,0,0,1-9.53,6.24C151.09,577.89,150.6,576.9,150.6,576.9Z"/><path class="cls-4" d="M150.6,576.44s-3.45-.87-9.92,2.47-17.25,9.36-18.34,10.18-4.33,3.29-2.58,6.25,6.19,4.49,9.86,4.7,10.62-1,11.94-1.42c.76-.22,2.12-.79,3.23-1.12,0,0,1.67-.52,2,0L153,626.61l3.54,18.53,9.25,2c-.9-1.5-10.14-2.81-12.35,5s2.71,14.47,2.71,14.47-3.32-4.12-10.65-3.92-8.84,7.13-8.84,7.13H209c8.14-1.1,9.95-2.91,13.16-5.53s7.54-9.94,7.44-17.78-3.86-13.37-10.15-16.08c-2.65-1.14-8.51-2.1-11.22-2.5a.21.21,0,0,0-.13.4,44.74,44.74,0,0,1,5.52,2.51c3.52,2.2,7.11,5.33,8.34,7.73,2.16,4.21,1,9.05-.8,13.06s-6.43,7.16-8.84,7.34c-3.33.24-6.33-2.51-7.74-4.62s-5-11.06-7.94-15.28a24.53,24.53,0,0,0-11.35-8.74,27.46,27.46,0,0,0-5.34-1.22,14.21,14.21,0,0,1-11-7.89c-1.91-4-3.45-9.45-6.07-16.61-4.27-11.68-9-23.43-10.17-26.34a3.1,3.1,0,0,0-1.28-1.53A2,2,0,0,0,150.6,576.44Z"/><path class="cls-5" d="M142.49,664.09c-4.69-1.77-9.41-9.4-11.6-14.43a73.81,73.81,0,0,1-3.27-11.07,31.75,31.75,0,0,0,8.57.27,14.76,14.76,0,0,0,8.89-4.1c3.37-3.32,3.79-7.06,4-14.23.29-7.86-1.68-18.44-2.39-22-.16-.76-.29-1.28-.29-1.28h0a2.17,2.17,0,0,1,1.66,1.11,28.68,28.68,0,0,1,1.81,4.43c1.41,4.25,7.79,29.34,9.58,37.23,1.86,8.22,4.05,28.34-2.68,28.29C151.88,668.3,142.49,664.09,142.49,664.09Z"/><path class="cls-4" d="M165.79,647.09c-.9-1.5-10.14-2.81-12.35,5s2.71,14.47,2.71,14.47-3.32-4.12-10.65-3.92-8.84,7.13-8.84,7.13h29.93Z"/><path class="cls-4" d="M157.45,628l1.21,6L151,639l-.3,6.88s3.86-.68,3.7-5.9l8.48-5.07-1.59-7Z"/><ellipse class="cls-6" cx="142.16" cy="584.5" rx="0.68" ry="1.36" transform="translate(-125.25 45.67) rotate(-12.72)"/><path class="cls-6" d="M119.38,594.25a2.51,2.51,0,0,0,.86.1,5.56,5.56,0,0,0,3.3-1.52c2-1.82.69-3.93-.67-4.09a10.16,10.16,0,0,0-2.75,2.49,5.21,5.21,0,0,0-.43.67,3.44,3.44,0,0,0-.37,2.33Z"/><path class="cls-11" d="M119.84,594.86s2.19,2.66,4,2.43,2.35-1.44,2.35-1.81"/><path class="cls-3" d="M178.65,477.07c-5.63-1.4-10.17-3-17.84-8.29s-10.63-14.39-12-25.18-7.51-20.18-7.51-20.18,17.68,7.66,26,21.43S178.65,477.07,178.65,477.07Z"/><path class="cls-4" d="M178.92,476.52s-.83-20.73,10.51-31.09S218.86,428.84,220,428c0,0-4.84,24.74-14,35s-22.25,15.48-24,15.75S178.92,476.52,178.92,476.52Z"/><path class="cls-4" d="M178.92,475.35s-8.7-2.21-25,6.22-43.53,23.63-46.3,25.71S96.7,515.57,101.12,523s15.62,11.33,24.87,11.89,26.81-2.63,30.13-3.6c1.92-.56,5.35-2,8.15-2.84,0,0,4.22-1.29,5.09,0L185,602l8.94,46.77,23.36,4.92c-2.28-3.8-25.61-7.1-31.19,12.68s6.85,36.51,6.85,36.51-8.37-10.4-26.88-9.89-22.31,18-22.31,18H326.31c20.54-2.78,25.1-7.35,33.21-13.94s19-25.1,18.77-44.88-9.75-33.74-25.61-40.57c-6.69-2.88-21.47-5.31-28.32-6.33a.54.54,0,0,0-.31,1c3.52,1.71,9,3.27,13.92,6.32,8.87,5.56,17.95,13.47,21,19.53,5.44,10.62,2.53,22.82-2,33s-16.22,18.06-22.31,18.51c-8.39.62-16-6.34-19.53-11.66s-12.68-27.9-20-38.54a61.8,61.8,0,0,0-28.65-22.06A69.29,69.29,0,0,0,253,608.21a35.84,35.84,0,0,1-27.77-19.92c-4.82-10.12-8.7-23.82-15.31-41.91-10.78-29.46-22.7-59.12-25.67-66.47a7.73,7.73,0,0,0-3.24-3.84A4.67,4.67,0,0,0,178.92,475.35Z"/><path class="cls-5" d="M158.47,696.53c-11.84-4.47-23.74-23.73-29.27-36.42-4.51-10.36-8.26-27.93-8.26-27.93a79.18,79.18,0,0,0,21.62.67A37.26,37.26,0,0,0,165,622.52c8.49-8.39,9.54-17.82,10.21-35.91.73-19.82-4.24-46.53-6-55.44-.39-1.93-.74-3.22-.74-3.22h0a5.39,5.39,0,0,1,4.19,2.78,70.6,70.6,0,0,1,4.57,11.19c3.57,10.73,19.67,74,24.18,94,4.69,20.73,10.21,71.5-6.76,71.37C182.15,707.15,158.47,696.53,158.47,696.53Z"/><path class="cls-4" d="M217.28,653.64c-2.28-3.8-25.61-7.1-31.19,12.68s6.85,36.51,6.85,36.51-8.37-10.4-26.88-9.89-22.31,18-22.31,18h75.53Z"/><path class="cls-4" d="M196.22,605.49l3.06,15.09L180,633.18l-.76,17.38s9.74-1.72,9.36-14.9L210,622.87l-4-17.76Z"/><ellipse class="cls-6" cx="157.63" cy="495.7" rx="1.72" ry="3.44" transform="translate(-105.31 46.89) rotate(-12.72)"/><path class="cls-6" d="M100.16,520.29a6,6,0,0,0,2.15.26,14.08,14.08,0,0,0,8.35-3.85c5.15-4.58,1.73-9.92-1.7-10.3a25.48,25.48,0,0,0-6.95,6.28,11.2,11.2,0,0,0-1.07,1.69,8.53,8.53,0,0,0-.93,5.87Z"/><path class="cls-12" d="M101.32,521.82s5.52,6.72,10.1,6.15,5.92-3.63,5.92-4.58"/></g></svg>