<svg id="Capa_1" data-name="Capa 1" xmlns="http://www.w3.org/2000/svg" viewBox="0 0 399.33 88.48"><defs><style>.cls-1{fill:#f2f2f2;}</style></defs><g id="niconne"><path class="cls-1" d="M93.55,19.89q0-12.36-11.68-12.37a13.15,13.15,0,0,0-8.75,3.11,20.47,20.47,0,0,0-5.69,8,107.38,107.38,0,0,0-3.94,11.8q-1.93,6.9-3.43,13.69Q56.33,60.85,49.48,72c1.38.62,3.49,1.6,6.33,3s5.12,2.42,6.84,3.19q7.25,3.28,12.72,3.28a9,9,0,0,0,4.54-1.21,11,11,0,0,0,3.25-2.62c.75-.94,1.4-1.81,2-2.61s.89-1.21,1-1.21l2.59,1.49Q83.66,84.85,78,87.14a17.14,17.14,0,0,1-6.5,1,30.84,30.84,0,0,1-8.72-1.41,86,86,0,0,1-10.64-4.06q-5.9-2.64-8.31-3.51a36,36,0,0,1-11.77,6.48,49.88,49.88,0,0,1-16.42,2.5,20.21,20.21,0,0,1-8.46-1.73Q0,83.12,0,78a12.47,12.47,0,0,1,3.16-8.63q6-6.66,16.75-6.67a46.38,46.38,0,0,1,16.16,3.17c2.07.8,4.78,1.91,8.11,3.33a105.26,105.26,0,0,0,4.2-15.76q1.74-8.91,3.23-14.76t3.08-10.75a53.73,53.73,0,0,1,4.14-9.58A37.44,37.44,0,0,1,64.5,10.4q6.84-7.14,17.83-7.14,8.34,0,13.61,4.84t5.26,13.58A31.72,31.72,0,0,1,98.58,34.3a37.3,37.3,0,0,1-6.93,10.79,41.55,41.55,0,0,1-10,7.88A35.78,35.78,0,0,1,70,57.23l-.81-3.17a28,28,0,0,0,12.66-7A36.9,36.9,0,0,0,90.5,34.53,37.06,37.06,0,0,0,93.55,19.89ZM3.62,77.3c0,3,1.88,5.07,5.64,6.1a33.29,33.29,0,0,0,23.24-2,17.32,17.32,0,0,0,6.62-5q-11.5-7.75-20.88-7.76Q3.63,68.62,3.62,77.3Z"/><path class="cls-1" d="M103.47,87.15a5,5,0,0,1-3.83-1.5,5.84,5.84,0,0,1-1.38-4.11,26.32,26.32,0,0,1,1.36-7.14q1.35-4.52,2.7-8.2a18.52,18.52,0,0,0,1.35-4.91c0-.83-.27-1.24-.8-1.24-1.35,0-3.51,2.65-6.51,7.94l-3.85-2.25Q101,51.47,108,51.48q4.84,0,4.84,6.1a23.45,23.45,0,0,1-1.15,5.69l-4.15,11.85a8.64,8.64,0,0,0-.63,3c0,.9.35,1.35,1,1.35q2,0,7.19-7.24l2.41,2.24a29.61,29.61,0,0,1-7.39,9.2Q105.91,87.16,103.47,87.15Zm16.37-52.67a6.56,6.56,0,0,1-1.55,4.23,5.16,5.16,0,0,1-4.2,1.89,4.85,4.85,0,0,1-4-1.58,6,6,0,0,1-1.33-4,6.3,6.3,0,0,1,1.64-4.28,5.38,5.38,0,0,1,4.23-1.87,4.61,4.61,0,0,1,3.88,1.64A6.15,6.15,0,0,1,119.84,34.48Z"/><path class="cls-1" d="M126.42,85.82a12.73,12.73,0,0,1-5.37-3.13,5.87,5.87,0,0,1-1.62-4,5.44,5.44,0,0,1,1.21-3.62,4,4,0,0,1,3.2-1.44,5.57,5.57,0,0,1,3.51,1.18,4,4,0,0,1,1.52,3.33q0,2.16-2.65,3.6c1.46,1.26,3.68,1.9,6.68,1.9q9.72,0,9.72-5.52,0-3.47-6.16-5.53c-1.68-.57-3.38-1.19-5.09-1.84a12.6,12.6,0,0,1-4.46-2.88,7,7,0,0,1-2.07-4.6,9.21,9.21,0,0,1,2.59-6.61q4.89-5.19,14.62-5.18a18.85,18.85,0,0,1,8.45,1.81c2.46,1.21,3.68,2.77,3.68,4.69a5.22,5.22,0,0,1-1.46,4.14,5.06,5.06,0,0,1-3.43,1.27,5.17,5.17,0,0,1-3.3-1.07,3.53,3.53,0,0,1-1.36-3c0-1.27.75-2.36,2.25-3.28-.92-.65-2.51-1-4.78-1a17.46,17.46,0,0,0-6.1,1q-2.7,1-2.7,2.73a3.34,3.34,0,0,0,2,2.88,27.24,27.24,0,0,0,4.8,2.13q2.82,1,5.64,2.24a13.29,13.29,0,0,1,4.8,3.63,8.88,8.88,0,0,1-.83,12.08q-5.35,5.34-14.62,5.35A25.91,25.91,0,0,1,126.42,85.82Z"/><path class="cls-1" d="M169.43,74.89q.34,6.63,8.92,6.62a14,14,0,0,0,6.58-1.81,18.94,18.94,0,0,0,5.56-4.29L193,77q-4.78,8-15.25,9.78a29.86,29.86,0,0,1-4.43.35A14.1,14.1,0,0,1,162.93,83a13.63,13.63,0,0,1-4.14-10,18.33,18.33,0,0,1,3.62-11,25,25,0,0,1,9.06-7.8,23.58,23.58,0,0,1,10.73-2.76,17,17,0,0,1,9.18,2.42,7.57,7.57,0,0,1,4,6.5A10.34,10.34,0,0,1,193,67.45,15.81,15.81,0,0,1,186.69,72,39.32,39.32,0,0,1,171.9,75Zm-.35-3.16a26.75,26.75,0,0,0,10.27-2,12.71,12.71,0,0,0,5.41-4.14,8.8,8.8,0,0,0,1.53-4.89,4.93,4.93,0,0,0-1.33-3.8,4.1,4.1,0,0,0-2.82-1.24,10.4,10.4,0,0,0-6.76,2.56,16.76,16.76,0,0,0-4.68,6.22A17.93,17.93,0,0,0,169.08,71.73Z"/><path class="cls-1" d="M207.28,52.75a227.91,227.91,0,0,1,12.09-30.84l7.13.58c-.42,1.22-1.46,4.18-3.1,8.86q-5.35,15.46-6.91,21.4h9l-.92,3.8h-9.32Q210,72.89,210,76.42t.72,3.54a2.85,2.85,0,0,0,1.29-.29q1.56-.86,6.68-8.4L221,73.4q-3.85,7-7.94,10.39t-6.73,3.36a4.66,4.66,0,0,1-4-1.84A7.78,7.78,0,0,1,201,80.59q0-7.31,5.12-24.05h-6l.92-3.79Z"/><path class="cls-1" d="M250.09,80.94q0-3,2.41-9.61t2.42-9.46q0-2.85-2-2.85t-4.81,2.79a39.91,39.91,0,0,0-5.41,6.82,168.37,168.37,0,0,0-8.57,14.84l-1.5,2.76h-8.28q2.82-20.82,5.41-30.84t4.95-17.08a98.58,98.58,0,0,1,5.06-12.54q6.11-12.54,14-18.59l4.37,2q-6.15,6.15-11.3,21.66T235.47,73.63c.23-.38.7-1.2,1.41-2.44s1.26-2.19,1.64-2.82l1.76-2.85c.78-1.27,1.45-2.27,2-3s1.24-1.68,2.1-2.79a30.25,30.25,0,0,1,2.3-2.67c.68-.68,1.47-1.4,2.39-2.19A15.29,15.29,0,0,1,251.7,53a13.6,13.6,0,0,1,6.27-1.5,6.5,6.5,0,0,1,5,1.85,7,7,0,0,1,1.7,4.94q0,3.1-2.88,10.44T259,77.78c0,1.15.3,1.72.92,1.72q2.42,0,7.3-7.3l2.48,2.3A33.5,33.5,0,0,1,262,84q-4,3.17-6.56,3.16a4.88,4.88,0,0,1-3.94-1.61A6.87,6.87,0,0,1,250.09,80.94Z"/><path class="cls-1" d="M398.18,0l1.15,2.7a48.38,48.38,0,0,0-9.84,2.88l-1.56.63a17,17,0,0,1,6.59,5.64A11.87,11.87,0,0,1,397,18.38a20.56,20.56,0,0,1-.52,5A21.25,21.25,0,0,1,395.18,27a22.11,22.11,0,0,1-2,3.37,35.52,35.52,0,0,1-2.27,2.93c-.7.79-1.55,1.67-2.57,2.65s-1.81,1.71-2.38,2.21c-1,.85-2.32,1.88-3.86,3.11q8.24,3.39,12.54,8A16.28,16.28,0,0,1,399,60.84a24.54,24.54,0,0,1-4.17,13.43,30.79,30.79,0,0,1-11.05,10.36,29.34,29.34,0,0,1-14.58,3.85q-8.52,0-13.06-4.77a8.49,8.49,0,0,1-2.48-6,7.61,7.61,0,0,1,2.1-5.58,7.63,7.63,0,0,1,9.81-.63,4.51,4.51,0,0,1,1.73,3.48,5.93,5.93,0,0,1-.69,3.11A5.54,5.54,0,0,1,365,79.79a10.22,10.22,0,0,1-2,1,8.53,8.53,0,0,1-2.41.69q0,2.53,6.27,3.16a18.56,18.56,0,0,0,2,.12,17.28,17.28,0,0,0,13.41-6,20.5,20.5,0,0,0,5.4-14.1,15.9,15.9,0,0,0-1.78-7.45,16.86,16.86,0,0,0-4.37-5.49,40.92,40.92,0,0,0-5.15-3.54c-1.71-1-3.15-1.73-4.34-2.27s-1.79-.89-1.79-1.07.58-.64,1.73-1.41,2.56-1.77,4.23-3a47.83,47.83,0,0,0,5-4.28,21.72,21.72,0,0,0,4.21-5.9,15.6,15.6,0,0,0,1.72-7,17.23,17.23,0,0,0-1.95-7.51,11.27,11.27,0,0,0-5.7-5.61Q368.6,16.8,363.83,30.78a94.57,94.57,0,0,0-3.11,10.76q-2.54,12-3.68,16.65a37.75,37.75,0,0,1-4.58,10.27A43.94,43.94,0,0,1,344,78.58a37.16,37.16,0,0,1-12.31,7.08,46.5,46.5,0,0,1-15.77,2.59q-11.67,0-19-5.35a13.91,13.91,0,0,1-5.76-11.85,17.41,17.41,0,0,1,2.48-9.21,18.55,18.55,0,0,1,6.44-6.44,33.51,33.51,0,0,1,17.55-4.83A40.18,40.18,0,0,1,322,32.47a49.17,49.17,0,0,1,11.6-15.13A57.6,57.6,0,0,1,350.51,7.13a53.49,53.49,0,0,1,19.94-3.85,106,106,0,0,1,11.56,1Q392.89.34,398.18,0ZM324.07,68.06l-3.56,1a47.79,47.79,0,0,1-1.93-6.79,36.29,36.29,0,0,1-.95-5.29,31.6,31.6,0,0,0-8.72,1.26,35.48,35.48,0,0,0-7,2.71,13.25,13.25,0,0,0-4.48,4.11,10.57,10.57,0,0,0-1.87,6.21,11,11,0,0,0,1.81,6.25,11.47,11.47,0,0,0,4.8,4.08,28,28,0,0,0,12.06,2.71A38.8,38.8,0,0,0,325.05,83a24.3,24.3,0,0,0,13.4-9,35.15,35.15,0,0,0,4.21-6.82q1.6-3.48,3.16-8t2.59-8.4a154.87,154.87,0,0,1,5.67-17.43,53.74,53.74,0,0,1,8.43-13.84A51.2,51.2,0,0,1,375.16,8.34a39.57,39.57,0,0,0-8.8-.8,38,38,0,0,0-12.17,2.32,49.55,49.55,0,0,0-12.68,6.5A58.9,58.9,0,0,0,331,25.89a42.24,42.24,0,0,0-7.28,11.82,33.92,33.92,0,0,0-2.65,13q12.66,2.59,18.3,9.38L337,62.59q-5.93-3.86-8.86-4.54l-3.51-.81a34.18,34.18,0,0,0-3.62-.35,57.42,57.42,0,0,0,2.47,9.44Z"/></g></svg>