<svg xmlns="http://www.w3.org/2000/svg" viewBox="0 0 612 792"><defs><style>.cls-1{fill:#686b81;}.cls-2{fill:#586524;}.cls-3{fill:#c9bd5a;}.cls-4{fill:#d0d37c;}.cls-5{fill:#9c472b;}.cls-6{fill:#9f6830;}.cls-7{fill:#b7bad8;}</style></defs><g id="margarita_amarilla" data-name="margarita amarilla"><rect class="cls-1" width="612" height="792"/><g id="arriba"><path class="cls-2" d="M352.71,331.39s106,84.85,259.54,84.85V406c-153.56,0-259.54-84.85-259.54-84.85Z"/><path class="cls-2" d="M517.68,397.32s-23-13.34-25.45-45.91c0,0-.92-8.2-5.84-11a62.61,62.61,0,0,1,26.25,27.38A47,47,0,0,1,517,384.87a33.28,33.28,0,0,0,4.42,13.72Z"/><path class="cls-2" d="M571.22,408.41s-17.88-10.35-19.75-35.63c0,0-.72-6.37-4.53-8.57a48.54,48.54,0,0,1,20.37,21.25,36.45,36.45,0,0,1,3.4,13.29,25.91,25.91,0,0,0,3.44,10.65Z"/><path class="cls-3" d="M240.64,143.66s-44.24-63-64.59-50.49,17.22,73.59,20.35,78.29,67.72,73.59,74.77,75.15S286.43,236,286.43,236Z"/><path class="cls-4" d="M266.47,261.49s-53.23-9-79.46-24.27c-24.12-14.05-86.9-58.72-74.37-75.94s70.06,6.65,86.9,21.92,74.55,62.3,73.19,66.93C271.9,253,266.47,261.49,266.47,261.49Z"/><path class="cls-3" d="M272.15,273.88s-26,6.39-49.52,7.57-83.38-7.83-95.9-11-39.54-15.66-38.36-24.27,16.83-12.92,36.79-14.09,64.2,9.39,70.07,11,66,18.28,71.12,17.89S272.15,273.88,272.15,273.88Z"/><path class="cls-4" d="M278,281s-22.06,15.74-42.8,24.35-84.95,19.57-107.65,16.05-27.4-18.79,5.48-25.45,69.68-10.18,74-10.57,56-5.87,61.46-12.52Z"/><path class="cls-3" d="M289.57,284.2s-27,42.66-57.55,64.18-62.63,38.76-69.67,29.75-4.18-26,6.65-38.36,42.28-29.75,47.37-30.92S279,280.27,279,280.27Z"/><path class="cls-4" d="M291.13,285.36a73.73,73.73,0,0,1-13.7,20c-9.39,9.78-27.4,29-28.57,42.66s-.79,41.1,17.22,42.67,45.41-33.66,42.67-50.89-8.22-55.19-8.22-55.19Z"/><path class="cls-4" d="M305.7,271.3s62.54-1.59,77.81,3.89,26.62,23.87,25.05,31.31-11.74,21.14-50.89,16.05S305.7,271.3,305.7,271.3Z"/><path class="cls-3" d="M306.4,280.67s14.48,5.08,20.35,6.65,21.92,6.66,27.79,19.57,7,38.75-5.48,45-43.45-9-47.75-19.57-2-32.1-1.57-36-.78-12.52-1.17-13.7S306.4,280.67,306.4,280.67Z"/><path class="cls-3" d="M315.23,265.67c1-1,47.53-35.5,64-40.2s49.72-10.17,52.46,2.35-25.06,31.71-46.19,39.54-61.31,9.42-69.13,5.5S313.27,267.63,315.23,265.67Z"/><path class="cls-4" d="M376.07,199.25s32.1-24.66,47.76-23.49-1.57,39.54-5.09,43.06S333,261.09,321.27,261.09s4.31-19.18,4.31-19.18Z"/><path class="cls-3" d="M369.42,166.37s38.36-43.45,64.19-38.36c0,0,4.86,1.22.79,8.61-5.94,10.76-49.32,54.8-54,59.89S349.06,231,344,234.87s-23.09,16.83-25.44,17.22-.78-16.44,1.18-18S369.42,166.37,369.42,166.37Z"/><path class="cls-4" d="M334.19,144.84c.39-1.57,14.87-38,16.83-41.89s18-27.4,24.66-26.22,12.92,18.4,9.4,39.14-16.84,55.19-18.79,58.72S327.53,238,316.18,245.83s-11.74-8.61-11.74-8.61Z"/><path class="cls-3" d="M295.05,143.66s-2-47.36,8.22-70.45,18.92-17.43,21.92-15.27c6.95,5,9.21,31.33,9.78,38.75.78,10.18-1.17,59.11-4.3,73.2s-18.79,65.76-21.92,69.68-17.23-3.92-17.23-3.92Z"/><path class="cls-4" d="M283.69,239.17s-32.09-52.45-38.75-75.54S227.33,79.47,254.34,74s40.31,71.24,42.27,78.29,2.74,59.1,2,68.89a59.09,59.09,0,0,1-4.31,17.61Z"/><path class="cls-5" d="M319.31,243.87s-17.22-16.44-36.79-7.44-20.75,25.84-17.22,35.62,19.18,23.49,37.57,13.31S330.27,257.18,319.31,243.87Z"/><ellipse class="cls-6" cx="274.59" cy="244.63" rx="2.61" ry="11.17" transform="translate(-85.53 170.07) rotate(-30)"/><ellipse class="cls-6" cx="264.76" cy="255.67" rx="2.61" ry="8.84" transform="translate(-77.31 391.51) rotate(-65.66)"/><ellipse class="cls-6" cx="273.79" cy="269.86" rx="2.61" ry="8.84" transform="translate(-84.93 408.08) rotate(-65.66)"/><ellipse class="cls-6" cx="286.64" cy="263.77" rx="2.61" ry="8.84" transform="translate(-101.36 298.32) rotate(-47.71)"/><ellipse class="cls-6" cx="307.24" cy="250.79" rx="2.61" ry="8.84" transform="translate(-87.6 213.42) rotate(-33.82)"/><ellipse class="cls-6" cx="283.12" cy="239.05" rx="2.61" ry="11.17" transform="translate(-77.1 152.18) rotate(-26.62)"/><ellipse class="cls-6" cx="301.18" cy="262.92" rx="2.61" ry="11.17" transform="translate(-85.88 162.8) rotate(-26.62)"/><ellipse class="cls-6" cx="294.53" cy="234.59" rx="2.61" ry="11.17" transform="translate(-52.98 89.63) rotate(-15.89)"/></g><g id="abajo"><path class="cls-2" d="M352.71,581.39s106,84.85,259.54,84.85V656c-153.56,0-259.54-84.85-259.54-84.85Z"/><path class="cls-2" d="M529.93,651.16s-24.28-10.9-30-43c0,0-1.76-8.07-6.94-10.39a62.64,62.64,0,0,1,28.92,24.54A46.76,46.76,0,0,1,528,638.85,33.57,33.57,0,0,0,533.81,652Z"/><path class="cls-2" d="M570.45,661s-6.71,25.76-37.44,36.78c0,0-7.67,3.08-9.09,8.58A62.57,62.57,0,0,1,543.3,673.7a46.79,46.79,0,0,1,15.33-8.79,33.44,33.44,0,0,0,12-7.93Z"/><path class="cls-3" d="M332.41,468.47s-25.61-50.46-43.69-64-32.39-23.35-38.41-23.35-17.33,3.76-7.54,27.11,27.87,53.48,32.39,60.26,63.27,94.16,72.31,92.65S364,548.32,361,536.27,332.41,468.47,332.41,468.47Z"/><path class="cls-4" d="M358.77,552.08s-23.35-67-27.87-84.36-33.14-112.23-2.26-118.26,50.47,89.64,50.47,99.43-.75,99.43-6,107S358.77,552.08,358.77,552.08Z"/><path class="cls-4" d="M425.06,436.08s12.05-19.58,23.35-42.18,29.37-17.32,30.88-6.78,1.51,42.94-9,67.8-38.41,65.53-42.18,70.8-36.91,44.44-42.18,43.69-5.27-24.11-3.77-27.87S425.06,436.08,425.06,436.08Z"/><path class="cls-3" d="M374.59,553.59s-3.77-53.48-2.26-74.57,12.05-84.36,12.8-88.88,9.8-36.91,26.37-32.39,17.14,70,16.57,84.36c-.75,18.83-17.33,64.78-26.36,80.6s-18.83,38.41-23.35,39.17S374.59,553.59,374.59,553.59Z"/><path class="cls-3" d="M388.15,570.16s36.15-52.73,45.19-65.53,46.7-51.22,58-49.71-3.14,44-5.27,49.71c-4.52,12-20.34,27.87-37.66,42.18s-55,32.39-58.76,31.64S388.15,570.16,388.15,570.16Z"/><path class="cls-4" d="M391.91,579.2s65.83-38.28,73.82-41.43c4.09-1.61,29.41-18.6,36.91-17.32,6.12,1,6,26.36-16.57,45.19s-45.2,25.61-58.75,26.37-42.19.75-39.93-5.28S391.91,579.2,391.91,579.2Z"/><path class="cls-3" d="M386.64,598.37s42.18-10.86,63.27-4.52,4.52,25.35,1.51,32.59C447,637,431,661,425.81,659.94c-12.81-2.72-27.87-26.26-33.14-34.41s-12.81-24.44-12.81-24.44Z"/><path class="cls-4" d="M365.85,608.58s28.25,16.57,35.58,33.89-1.05,34.65-17.79,49.72-23,18.07-30.34,15.06,5.23-82.86,1-93.4C352.31,608.73,365.85,608.58,365.85,608.58Z"/><path class="cls-3" d="M355.76,619.12s-7.53,41.43-18.08,58.75-60.26,61.77-79.09,52.73,46-73.06,56.49-85.11,35.41-31.64,35.41-31.64Z"/><path class="cls-4" d="M339.94,610.08s-69.3,23.35-107,41.43-64.78,29.38-64,40.68,36.15,19.58,66.28,9,57.25-28.62,65.53-34.64,49.72-46.7,49.72-49.72S339.94,610.08,339.94,610.08Z"/><path class="cls-3" d="M332.41,600.29s-73.07,6-100.94,9.79-89.63,19.59-90.38,54.24c0,0,1.5,4.52,11.29,9s36.91,0,55.74-6.78,136.34-52.73,136.34-59.51S332.41,600.29,332.41,600.29Z"/><path class="cls-4" d="M333.16,582.21s-91.14-30.88-104-33.14-88.12-12.8-99.42,15.82,65.53,41.43,77.58,43.69,117.51,0,128.05-10.55S333.16,582.21,333.16,582.21Z"/><path class="cls-3" d="M334.67,569.41s-59.51-49-68.55-55c-9.75-6.5-58-30.13-70.05-32.39-11.13-2.08-57.24-4.52-38.41,24.86s51.22,42.18,58.75,44.44S331.65,589,336.17,584.47,334.67,569.41,334.67,569.41Z"/><path class="cls-4" d="M342.2,557.36s-21.84-41.43-33.14-58c-15.38-22.56-62.17-71-88.88-79.09-24.86-7.54-39.93-6.78-28.63,22.59s48.21,58.76,50.47,63.28,81.35,61.76,95.66,62.51S342.2,557.36,342.2,557.36Z"/><path class="cls-5" d="M377.6,548.32S349,536.27,333.16,564.14s-.75,47.45,12,55.74,39.17-2.26,46.7-19.59S401,558.86,377.6,548.32Z"/><ellipse class="cls-6" cx="348.11" cy="555.93" rx="2.61" ry="11.17" transform="translate(-212.18 214.88) rotate(-26.62)"/><ellipse class="cls-6" cx="365.67" cy="574.23" rx="2.61" ry="11.17" transform="translate(-218.52 224.69) rotate(-26.62)"/><ellipse class="cls-6" cx="335.3" cy="565.26" rx="2.61" ry="11.17" transform="matrix(0.75, -0.66, 0.66, 0.75, -290.64, 364.88)"/><ellipse class="cls-6" cx="371.89" cy="593.99" rx="2.61" ry="11.17" transform="matrix(0.75, -0.66, 0.66, 0.75, -300.48, 396.4)"/><ellipse class="cls-6" cx="382.51" cy="571.12" rx="2.61" ry="11.17" transform="translate(-194.94 198.24) rotate(-23.34)"/><ellipse class="cls-6" cx="352.68" cy="590.52" rx="2.61" ry="11.17" transform="translate(-335.06 600.69) rotate(-60)"/><ellipse class="cls-6" cx="329.44" cy="583.2" rx="2.61" ry="11.17" transform="translate(-339.52 616.91) rotate(-63.42)"/><ellipse class="cls-6" cx="330.72" cy="598.38" rx="11.17" ry="2.61" transform="translate(-28.53 16.68) rotate(-2.77)"/><ellipse class="cls-6" cx="352.32" cy="609.36" rx="11.17" ry="2.61" transform="translate(-29.03 17.74) rotate(-2.77)"/><ellipse class="cls-6" cx="364.58" cy="550.08" rx="2.61" ry="11.17" transform="translate(-175.32 170.59) rotate(-21.36)"/></g><path class="cls-7" d="M417.24,334.6c4,2.23,8,4.48,12.08,6.65s8.07,4.38,12.14,6.49,8.28,3.93,12.26,6.16,7.94,4.41,12.12,6.36l-.06.29a28.78,28.78,0,0,1-6.88-1.45c-1.1-.36-2.21-.75-3.29-1.17l-3.22-1.34a117.2,117.2,0,0,1-12.1-6.76q-5.91-3.57-11.74-7.29c-3.85-2.52-7.7-5-11.47-7.68Z"/><path class="cls-7" d="M147,621.33a107,107,0,0,0-11.22,12.78,77.92,77.92,0,0,0-8.76,14.4,49.87,49.87,0,0,0-4.21,15.89,33.73,33.73,0,0,0,.25,8.15,41.58,41.58,0,0,0,2.35,8.05l-.26.15a24.89,24.89,0,0,1-4.14-7.7,27.36,27.36,0,0,1-1.19-8.82,29.32,29.32,0,0,1,1.57-8.73,54.27,54.27,0,0,1,3.47-8,80.13,80.13,0,0,1,9.75-14.27,100.05,100.05,0,0,1,12.19-12.08Z"/><path class="cls-7" d="M106.55,141.81a42.14,42.14,0,0,1,5.33-2c.91-.29,1.83-.52,2.75-.79l2.78-.65a61.37,61.37,0,0,1,11.42-1.18c1.92-.08,3.85.08,5.79.15a29.21,29.21,0,0,1,5.71,1.08c.92.3,1.86.55,2.76.9s1.78.76,2.65,1.19a14.25,14.25,0,0,1,1.3.64l1.23.77c.82.53,1.62,1,2.38,1.64l-.13.27c-3.78-.81-7.26-1.92-10.9-2.5-.89-.2-1.78-.39-2.69-.52s-1.8-.34-2.69-.53a53.27,53.27,0,0,0-5.48-.69,59.85,59.85,0,0,0-11.11.26,58.38,58.38,0,0,0-11,2.23Z"/><path class="cls-7" d="M379.32,714.31a87.15,87.15,0,0,0,19.93-5.25,93.45,93.45,0,0,0,18.26-9.38,113.58,113.58,0,0,0,15.68-13.07,152.78,152.78,0,0,0,13.57-15.47l.26.15a67.12,67.12,0,0,1-11.68,17.41,65.76,65.76,0,0,1-7.82,7.1,96.87,96.87,0,0,1-8.73,5.91,94.72,94.72,0,0,1-19,8.76,93.41,93.41,0,0,1-10.1,2.7,69.21,69.21,0,0,1-10.33,1.44Z"/><path class="cls-7" d="M428,111.61a38.58,38.58,0,0,1,12.12,6.2,27.75,27.75,0,0,1,8.65,10.84,24.32,24.32,0,0,1,1.84,6.88,23.69,23.69,0,0,1,.14,3.57,24.24,24.24,0,0,1-.49,3.52,30.2,30.2,0,0,1-6,12.45l-.26-.14a71,71,0,0,0,3.26-12.82c.2-1.06.21-2.12.33-3.18s.11-2.11,0-3.17a19.63,19.63,0,0,0-1.12-6.24A25.7,25.7,0,0,0,439.18,119a39.46,39.46,0,0,0-11.25-7.07Z"/><g id="puntos"><circle class="cls-7" cx="51.29" cy="47.19" r="4.73"/><circle class="cls-7" cx="521.27" cy="157.93" r="6.08"/><circle class="cls-7" cx="404.52" cy="109.05" r="1.84"/><circle class="cls-7" cx="153.84" cy="48.71" r="1.84"/><circle class="cls-7" cx="186.08" cy="753.16" r="1.84"/><circle class="cls-7" cx="263.98" cy="40.14" r="1.84"/><circle class="cls-7" cx="56.35" cy="122.08" r="1.84"/><circle class="cls-7" cx="126.62" cy="99.11" r="1.84"/><circle class="cls-7" cx="561.86" cy="80.99" r="1.84"/><circle class="cls-7" cx="344.19" cy="35.6" r="1.84"/><circle class="cls-7" cx="458.67" cy="108.88" r="1.84"/><circle class="cls-7" cx="121.22" cy="403.65" r="4.73"/><circle class="cls-7" cx="575.46" cy="607.85" r="1.84"/><circle class="cls-7" cx="505" cy="84.73" r="1.84"/><circle class="cls-7" cx="136.08" cy="534.25" r="1.84"/><circle class="cls-7" cx="572.57" cy="502.3" r="4.73"/><circle class="cls-7" cx="316.78" cy="727.95" r="2.22"/><circle class="cls-7" cx="599.62" cy="458.67" r="2.22"/><circle class="cls-7" cx="537.71" cy="564.41" r="2.22"/><circle class="cls-7" cx="94.73" cy="562.66" r="1.84"/><circle class="cls-7" cx="101.4" cy="487.92" r="1.84"/><circle class="cls-7" cx="506.62" cy="27.64" r="1.84"/><circle class="cls-7" cx="53.86" cy="373.77" r="6.08"/><circle class="cls-7" cx="96.9" cy="328.84" r="1.84"/><circle class="cls-7" cx="39.54" cy="472.08" r="1.84"/><circle class="cls-7" cx="46.97" cy="287.84" r="1.84"/><circle class="cls-7" cx="331.54" cy="764.46" r="1.84"/><circle class="cls-7" cx="109.05" cy="736.95" r="1.84"/><circle class="cls-7" cx="45.21" cy="740.7" r="1.84"/><circle class="cls-7" cx="91.49" cy="201.81" r="1.84"/><circle class="cls-7" cx="513.4" cy="236.13" r="1.84"/><circle class="cls-7" cx="213.34" cy="69.86" r="2.94"/><circle class="cls-7" cx="442.84" cy="276.62" r="4.73"/><circle class="cls-7" cx="40.16" cy="594.78" r="1.84"/><circle class="cls-7" cx="64.46" cy="518.51" r="1.84"/><circle class="cls-7" cx="507.85" cy="494.27" r="1.84"/><circle class="cls-7" cx="146.9" cy="446.67" r="2.94"/><circle class="cls-7" cx="508.57" cy="287.38" r="1.84"/><circle class="cls-7" cx="565.87" cy="330.23" r="2.22"/><circle class="cls-7" cx="459.1" cy="211.27" r="1.84"/><circle class="cls-7" cx="563.46" cy="243.62" r="2.94"/><circle class="cls-7" cx="244.1" cy="763.32" r="1.84"/><circle class="cls-7" cx="91.24" cy="636.04" r="1.78"/><circle class="cls-7" cx="524.79" cy="450.9" r="1.84"/><circle class="cls-7" cx="51.23" cy="666.8" r="2.94"/><circle class="cls-7" cx="426.68" cy="753.2" r="1.84"/><circle class="cls-7" cx="485.9" cy="677.46" r="1.84"/><circle class="cls-7" cx="560.22" cy="758.56" r="1.78"/><circle class="cls-7" cx="506.62" cy="723.1" r="1.84"/><circle class="cls-7" cx="588.57" cy="713.02" r="1.84"/><circle class="cls-7" cx="170.1" cy="398.32" r="2.94"/><circle class="cls-7" cx="429.32" cy="60.27" r="2.57"/><circle class="cls-7" cx="27" cy="185.25" r="1.84"/></g></g></svg>